<?xml version="1.0" standalone="no"?>
<!DOCTYPE svg PUBLIC "-//W3C//DTD SVG 1.1//EN" "http://www.w3.org/Graphics/SVG/1.1/DTD/svg11.dtd" >
<!--
2013-9-30: Created.
-->
<svg>
<metadata>
Created by iconfont
</metadata>
<defs>

<font id="iconfont" horiz-adv-x="1024" >
  <font-face
    font-family="iconfont"
    font-weight="500"
    font-stretch="normal"
    units-per-em="1024"
    ascent="896"
    descent="-128"
  />
    <missing-glyph />
    
    <glyph glyph-name="x" unicode="x" horiz-adv-x="1001"
d="M281 543q-27 -1 -53 -1h-83q-18 0 -36.5 -6t-32.5 -18.5t-23 -32t-9 -45.5v-76h912v41q0 16 -0.5 30t-0.5 18q0 13 -5 29t-17 29.5t-31.5 22.5t-49.5 9h-133v-97h-438v97zM955 310v-52q0 -23 0.5 -52t0.5 -58t-10.5 -47.5t-26 -30t-33 -16t-31.5 -4.5q-14 -1 -29.5 -0.5
t-29.5 0.5h-32l-45 128h-439l-44 -128h-29h-34q-20 0 -45 1q-25 0 -41 9.5t-25.5 23t-13.5 29.5t-4 30v167h911zM163 247q-12 0 -21 -8.5t-9 -21.5t9 -21.5t21 -8.5q13 0 22 8.5t9 21.5t-9 21.5t-22 8.5zM316 123q-8 -26 -14 -48q-5 -19 -10.5 -37t-7.5 -25t-3 -15t1 -14.5
t9.5 -10.5t21.5 -4h37h67h81h80h64h36q23 0 34 12t2 38q-5 13 -9.5 30.5t-9.5 34.5q-5 19 -11 39h-368zM336 498v228q0 11 2.5 23t10 21.5t20.5 15.5t34 6h188q31 0 51.5 -14.5t20.5 -52.5v-227h-327z" />
    

    
    <glyph glyph-name="search" unicode="&#58885;" d="M266 522C260 510 242 504 236 510 224 510 218 528 218 540c6 18 18 30 24 48l0 0 0 0C254 600 266 612 278 624l0 0 0 0c12 12 24 24 42 36C332 666 350 678 368 684 380 690 392 684 398 672c6-12 0-24-12-30C368 636 356 630 344 618 332 612 320 600 314 594l0 0C302 582 290 570 284 558l0 0C278 546 266 534 266 522L266 522zM794 162l168-168c18-18 18-42 0-54-12-18-42-18-54 0l-168 168c-30-30-66-48-108-66-48-18-102-30-162-30-54 0-114 12-162 30l0 0 0 0c-54 24-96 54-138 90l0 0c-36 36-72 84-90 138l0 0C62 324 50 378 50 432c0 54 12 114 30 162 24 54 54 96 90 138 78 78 180 126 300 126 54 0 114-12 162-30l0 0 0 0c54-24 96-54 138-90l0 0c36-36 66-84 90-132l0 0c18-48 30-102 30-156 0-54-12-114-30-162C842 234 824 192 794 162L794 162zM602 750C560 768 518 774 470 774c-96 0-180-36-240-102C194 642 170 606 152 564 140 522 128 480 128 432 128 384 140 342 152 300l0 0c18-42 42-78 72-114l0 0 0 0c30-30 72-60 114-72l0 0c42-18 84-24 132-24 48 0 90 12 132 24 42 18 78 42 108 72l0 0 0 0c30 30 60 72 72 114 18 42 24 84 24 132 0 48-6 90-24 132l0 0c-18 42-42 78-72 108l0 0C680 708 644 732 602 750L602 750 602 750z"  horiz-adv-x="1024" />

    
    <glyph glyph-name="pingmufangda" unicode="&#58974;" d="M845.238129 828.319551 178.759825 828.319551c-61.34823 0-111.079888-49.727565-111.079888-111.079888l0-666.479327c0-61.352323 49.731658-111.079888 111.079888-111.079888l666.478304 0c61.34823 0 111.080911 49.727565 111.080911 111.079888l0 666.479327C956.31904 778.591987 906.586358 828.319551 845.238129 828.319551zM456.459544 50.760336l-249.14743-0.00921c-7.760754 0-14.743796 3.218298-19.783579 8.352225-5.369288 4.565992-8.768711 11.200086-8.768711 19.426445L178.759825 328.460056c0 15.340383 12.434194 27.770484 27.770484 27.770484 15.335267 0 27.770484-12.429077 27.770484-27.770484l-0.876973-182.584432 188.496072 188.496072 39.272445-39.268352L272.384156 106.292094l184.075389 0.00921c15.33629 0 27.770484-12.429077 27.770484-27.770484S471.795834 50.760336 456.459544 50.760336zM845.238129 439.539944c0-15.331173-12.43317-27.770484-27.76946-27.770484s-27.771507 12.438287-27.771507 27.770484l0.876973 182.584432L602.079086 433.628304l-39.271422 39.277562 188.806133 188.803064-184.075389-0.00921c-15.33936 0-27.76946 12.438287-27.76946 27.770484 0 15.340383 12.429077 27.770484 27.76946 27.770484l249.143337 0.00921c7.766894 0 14.743796-3.218298 19.784602-8.353248 5.374404-4.555759 8.771781-11.199063 8.771781-19.425422L845.238129 439.539944z"  horiz-adv-x="1024" />

    
    <glyph glyph-name="pingmusuoxiao" unicode="&#58975;" d="M844.868715 827.825294 179.130262 827.825294c-61.279668 0-110.956068-49.672306-110.956068-110.956068l0-665.738453c0-61.284785 49.676399-110.956068 110.956068-110.956068l665.738453 0c61.284785 0 110.957091 49.671283 110.957091 110.956068L955.825806 716.869227C955.825806 778.154012 906.1535 827.825294 844.868715 827.825294zM484.259704 78.870558c0-15.315824-12.415774-27.739784-27.738761-27.739784-15.322987 0-27.738761 12.424984-27.738761 27.739784l0.87595 182.380794L241.371838 72.965058l-39.229466 39.23356 188.598402 188.594309L206.869023 300.792926c-15.318894 0-27.738761 12.406564-27.738761 27.729551s12.419867 27.738761 27.738761 27.738761l248.867044 0.00921c7.756661 0 14.727423-3.214205 19.765159-8.343015 5.363148-4.550643 8.758478-11.178597 8.758478-19.404955L484.259704 78.870558zM817.129954 411.739784l-248.864998-0.00921c-7.756661 0-14.728446 3.214205-19.766183 8.343015-5.364171 4.559852-8.760524 11.187807-8.760524 19.403932L539.738249 689.130466c0 15.322987 12.426007 27.738761 27.738761 27.738761 15.32401 0 27.740808-12.415774 27.740808-27.738761l-0.876973-182.380794 188.286294 188.286294 39.225373-39.225373L633.258203 467.20912l183.871751 0.008186c15.32401 0 27.738761-12.415774 27.738761-27.738761C844.868715 424.163745 832.452941 411.739784 817.129954 411.739784z"  horiz-adv-x="1024" />

    
    <glyph glyph-name="shanchu" unicode="&#59259;" d="M609.63650347 123.97985172999995c-17.99205973 0-32.55561493 14.53321493-32.55561494 32.49493334L577.08088853 514.0100735999999c0 17.9617184 14.53321493 32.49493333 32.55561494 32.49493333s32.55561493-14.53321493 32.55561493-32.49493333l0-357.53528853C642.1921184 138.51306666999994 627.6285632 123.97985172999995 609.63650347 123.97985172999995L609.63650347 123.97985172999995 609.63650347 123.97985172999995zM414.36349653 123.97985172999995c-17.99205973 0-32.55561493 14.53321493-32.55561493 32.49493334L381.8078816 514.0100735999999c0 17.9617184 14.53321493 32.49493333 32.55561493 32.49493333 17.99205973 0 32.55561493-14.53321493 32.55561494-32.49493333l0-357.53528853C446.88877013 138.51306666999994 432.3555552 123.97985172999995 414.36349653 123.97985172999995L414.36349653 123.97985172999995 414.36349653 123.97985172999995zM935.13197013 676.5150816l-162.74773333 0L772.3842368 741.53528853c0 53.76379307-43.44794027 97.51514027-96.9083264 97.51514027L349.25226667 839.05042987c-53.8244736 0-97.63650347-43.75134827-97.63650347-97.51514027l0-65.02020693L88.86802987 676.5150816c-17.99205973 0-32.55561493-14.53321493-32.55561494-32.49493333 0-17.9617184 14.53321493-32.49493333 32.55561494-32.49493334l846.2336 0c17.99205973 0 32.55561493 14.53321493 32.55561493 32.49493334C967.6572448 661.98186667 953.12402987 676.5150816 935.13197013 676.5150816L935.13197013 676.5150816 935.13197013 676.5150816zM316.72699307 741.53528853c0 17.9010368 14.6242368 32.49493333 32.55561493 32.49493334l326.2236448 0c17.8403552 0 31.79709653-14.26014827 31.79709653-32.49493334l0-65.02020693L316.72699307 676.5150816 316.72699307 741.53528853 316.72699307 741.53528853 316.72699307 741.53528853zM739.9803264-71.02008852999995L284.23205973-71.02008852999995c-53.8244736 0-97.63650347 43.75134827-97.63650346 97.51514026L186.5955552 514.4955264c0 17.93137813 14.59389653 32.49493333 32.55561493 32.49493333 17.9617184 0 32.55561493-14.5635552 32.55561494-32.49493333l0-488.03081493c0-17.93137813 14.6242368-32.49493333 32.55561493-32.49493334l455.74826667 0c17.9617184 0 32.55561493 14.5635552 32.55561493 32.49493334L772.5662816 513.16053333c0 17.93137813 14.5635552 32.49493333 32.55561493 32.49493334 17.99205973 0 32.55561493-14.5635552 32.55561494-32.49493334l0-486.69582186C837.61682987-27.299081600000022 793.8048-71.02008852999995 739.9803264-71.02008852999995L739.9803264-71.02008852999995 739.9803264-71.02008852999995zM739.9803264-71.02008852999995"  horiz-adv-x="1024" />

    
    <glyph glyph-name="jiaoseguanli" unicode="&#59007;" d="M332 623.99999999m-180 0a2.8125 2.8125 0 1 1 360 0 2.8125 2.8125 0 1 1-360 0ZM572 83.99999998999999L512 83.99999998999999l0 180 60 0 0 60 48 0C608 359.99999999 578 383.99999999 512 383.99999999l-162-318 72 288L332 443.99999999 242 353.99999999l72-288L152 383.99999999c-120 0-120-78-120-180l0-240 600 0 0 60L572 23.999999989999992 572 83.99999998999999zM992 143.99999999l0 60-66 0c-6 18-12 36-24 54l42 42-42 42-42-42c-18 12-36 18-54 24L806 383.99999999l-60 0 0-66c-18-6-36-12-54-24l-42 42-42-42 42-42c-12-18-18-36-24-54L572 197.99999999l0-60 66 0c6-18 12-36 24-54l-42-42 42-42 42 42c18-12 36-18 54-24L758-36.00000001000001l60 0 0 66c18 6 36 12 54 24l42-42 42 42-42 42c12 18 18 36 24 54L992 149.99999999zM782 113.99999998999999c-36 0-60 24-60 60s24 60 60 60 60-24 60-60S818 113.99999998999999 782 113.99999998999999z"  horiz-adv-x="1024" />

    
    <glyph glyph-name="arrow-left" unicode="&#58891;" d="M975.386505 383.48024198999997c0-255.520323-207.86424199-463.383273-463.389737-463.38327299C256.477737-79.90432299999998 48.613495 127.95991900000001 48.613495 383.48024198999997 48.613495 639.0044439999999 256.477737 846.868687 511.995475 846.868687 767.522263 846.868687 975.386505 639.0044439999999 975.386505 383.48024198999997L975.386505 383.48024198999997zM114.81018199 383.48024198999997c0-219.01575801 178.172121-397.18658599 397.18658601-397.18658599 219.020929 0 397.193051 178.172121 397.193051 397.18658599 0 219.019636-178.172121 397.19175799-397.193051 397.19175801C292.982303 780.672 114.81018199 602.499879 114.81018199 383.48024198999997L114.81018199 383.48024198999997zM456.527515 572.211717L290.764929 408.27216201c-9.79781799-9.667232-12.247919-23.964444-7.37874701-35.979636 0.298667-0.757657 1.025293-1.353697 1.38860601-2.08549501 1.520485-3.075879 3.176727-6.156929 5.727677-8.737616 0.029737-0.029737 0.065939-0.029737 0.09567699-0.065939 0.03620201-0.029737 0.03620201-0.067232 0.06593901-0.100848l164.37398-164.82779801c12.90860601-12.944808 33.857939-12.974545 46.797576-0.07111099 6.490505 6.454303 9.733172 14.964364 9.733172 23.43434299 0 8.442828-3.206465 16.914101-9.662061 23.368404L395.062949 350.38383798999996 710.593293 350.38383798999996c18.302707 0 33.101576 14.82860601 33.101576 33.096404 0 18.27297001-14.797576 33.101576-33.101576 33.10157602L393.305859 416.58181799l109.756768 108.56598c6.556444 6.454303 9.828848 14.99539399 9.828848 23.53002 0 8.409212-3.176727 16.818424-9.566384 23.27272701C490.487596 584.954828 469.533091 585.08541399 456.527515 572.211717L456.527515 572.211717zM456.527515 572.211717"  horiz-adv-x="1024" />

    
    <glyph glyph-name="arrow-right" unicode="&#58905;" d="M48.614141 383.485414C48.614141 639.0044439999999 256.478384 846.868687 512.003879 846.868687c255.51903 0 463.38198-207.864242 463.38198-463.383273 0-255.525495-207.864242-463.388444-463.38198-463.388444C256.478384-79.90432299999998 48.614141 127.95991900000001 48.614141 383.485414L48.614141 383.485414zM909.191758 383.485414c0 219.015758-178.173414 397.186586-397.186586 397.186586-219.020929 0-397.193051-178.172121-397.193051-397.186586 0-219.019636 178.172121-397.191758 397.193051-397.191758C731.018343-13.70763599999998 909.191758 164.46448499999997 909.191758 383.485414L909.191758 383.485414zM567.474424 194.75264600000003l165.761293 163.939556c9.797818 9.667232 12.249212 23.964444 7.378747 35.979636-0.297374 0.757657-1.025293 1.353697-1.387313 2.085495-1.521778 3.075879-3.176727 6.156929-5.72897 8.737616-0.028444 0.029737-0.065939 0.029737-0.094384 0.065939-0.036202 0.029737-0.036202 0.067232-0.067232 0.100848L568.962586 570.4895349999999c-12.907313 12.944808-33.857939 12.974545-46.796283 0.071111-6.491798-6.454303-9.733172-14.964364-9.733172-23.434343 0-8.442828 3.206465-16.914101 9.662061-23.368404l106.843798-107.177374L313.407354 416.580525c-18.302707 0-33.101576-14.828606-33.101576-33.096404 0-18.27297 14.797576-33.101576 33.101576-33.101576l317.287434 0-109.756768-108.56598c-6.556444-6.454303-9.830141-14.995394-9.830141-23.53002 0-8.409212 3.176727-16.818424 9.566384-23.272727C533.513051 182.00953500000003 554.467556 181.87894900000003 567.474424 194.75264600000003L567.474424 194.75264600000003zM567.474424 194.75264600000003"  horiz-adv-x="1024" />

    
    <glyph glyph-name="xinzeng" unicode="&#58919;" d="M513.993696-54.63746c-119.023102 0-230.917438 46.127526-315.082174 129.876544-84.197114 83.820969-130.576069 195.235231-130.576069 313.811036 0 118.546825 46.380954 229.990866 130.546689 313.77586 84.164736 83.752016 196.056674 129.877143 315.080575 129.877143s230.916838-46.125127 315.0436-129.877143c84.23269-83.784994 130.584064-195.229235 130.584064-313.74588 0.02998-118.576805-46.351374-230.020046-130.584064-313.801043C744.909535-8.470761 633.016599-54.63746 513.993696-54.63746zM513.993696 769.072665c-102.086985 0-198.032734-39.536994-270.163229-111.352303-72.103914-71.750153-111.829979-167.18325-111.829979-268.670042 0-101.487392 39.693888-196.914492 111.797002-268.638663 72.131495-71.811112 168.074046-111.344309 270.163229-111.344309 102.056606 0 198.032334 39.533196 270.163229 111.344309 72.099916 71.78413 111.831778 167.192244 111.797002 268.67324 0 101.483994-39.697085 196.885512-111.797002 268.606285C712.021833 729.503093 616.046105 769.072665 513.993696 769.072665zM736.822019 420.882937 545.825914 420.882937l0 190.998503c0 17.572486-14.260331 31.832418-31.832418 31.832418-17.573085 0-31.833817-14.259732-31.833817-31.832418l0-190.998503-190.996105 0c-17.572486 0-31.832418-14.260331-31.832418-31.832817 0-17.567489 14.259732-31.832817 31.832418-31.832817l190.996105 0 0-190.997104c0-17.606063 14.26273-31.831418 31.835815-31.831418 17.575084 0 31.830419 14.225355 31.830419 31.831418l0 190.997104 190.996105 0c17.607062 0 31.833417 14.265328 31.833417 31.832817C768.655436 406.627802 754.429081 420.882937 736.822019 420.882937z"  horiz-adv-x="1024" />

    
    <glyph glyph-name="bianji" unicode="&#58902;" d="M342.546875 337.33007812000005c-0.61523438-0.703125-1.14257813-1.49414063-1.40625-2.4609375L295.7890625 169.81054687000005c-2.63671875-9.58007813 0.08789063-19.95117188 7.20703125-27.24609374 5.36132813-5.18554688 12.39257813-8.0859375 19.95117188-8.0859375 2.4609375 0 4.921875 0.26367188 7.38281249 0.96679687L495.21289062 180.09375c0.26367188 0 0.3515625-0.26367188 0.61523438-0.26367188 1.93359375 0 3.77929688 0.703125 5.18554688 2.109375l440.77148437 438.13476563c13.09570313 13.0078125 20.30273438 30.76171875 20.30273438 50.09765625 0 21.88476563-9.31640625 43.76953125-25.66406251 59.94140625l-41.66015624 41.484375c-16.34765625 16.25976563-38.3203125 25.57617188-60.38085938 25.57617188-19.42382813 0-37.265625-7.11914063-50.44921875-20.12695313L343.16210937 338.82421875C342.72265625 338.38476562000005 342.8984375 337.76953125 342.546875 337.33007812000005M898.63085938 663.05273438L854.7734375 619.546875l-71.015625 71.71875 43.15429688 42.890625c6.85546875 6.85546875 20.0390625 5.80078125 27.86132812-2.02148438l41.66015625-41.484375c4.30664063-4.30664063 6.85546875-10.01953125 6.85546875-15.73242187C903.37695313 670.34765625 901.70703125 666.12890625 898.63085938 663.05273438M420.9453125 330.47460937000005l318.07617188 316.23046876 71.01562499-71.71875001L492.48828125 259.28320312000005 420.9453125 330.47460937000005 420.9453125 330.47460937000005 420.9453125 330.47460937000005zM362.9375 202.2421875l23.02734375 83.84765625 61.34765625-60.99609375L362.9375 202.2421875 362.9375 202.2421875 362.9375 202.2421875zM926.4921875 489.46875c-16.69921875 0-30.41015625-13.53515625-30.41015625-30.32226563l0-408.51562499c0-21.4453125-17.49023438-38.84765625-39.11132813-38.84765626L161.93164062 11.783203120000053c-21.53320313 0-39.11132813 17.40234375-39.11132812 38.84765626L122.8203125 717.36914063c0 21.4453125 17.578125 38.84765625 39.11132813 38.84765624L609.55859375 756.21679688c16.78710938 0 30.41015625 13.53515625 30.41015625 30.23437499 0 16.61132813-13.62304688 30.234375-30.41015625 30.234375L157.2734375 816.68554688C104.71484375 816.68554688 62 774.234375 62 721.93945313l0-675.96679688c0-52.29492188 42.71484375-94.74609375 95.2734375-94.74609375l704.35546875 0c52.55859375 0 95.2734375 42.45117188 95.2734375 94.74609375L956.90234375 459.32226563C956.81445313 475.93359375 943.19140625 489.46875 926.4921875 489.46875"  horiz-adv-x="1025" />

    
    <glyph glyph-name="jichuguanli" unicode="&#58976;" d="M359.88732354 834L188.76056328 834C120.30985917 834 62 776.9577468699999 62 708.5070419l0-171.12676026c0-68.45070411 58.30985917-124.22535205 126.76056328-124.22535205l294.08450713 0L482.84507041 708.5070419C482.84507041 776.9577468699999 428.33802852 834 359.88732354 834L359.88732354 834zM420.73239394 475.26760606L188.76056328 475.26760606c-34.22535205 0-63.38028164 27.88732354-63.38028164 62.11267646L125.38028164 708.5070419c0 34.22535205 29.15492959 63.38028164 63.38028164 63.38028164l171.12676026 0c34.22535205 0 62.11267646-29.15492959 62.11267646-63.38028164L422 475.26760606 420.73239394 475.26760606zM420.73239394 475.26760606M839.04225313 834L667.91549287 834c-68.45070411 0-126.76056328-57.04225313-126.76056328-125.4929581l0-294.08450713 297.88732353 0c68.45070411 0 122.95774688 54.5070419 122.95774688 124.22535205L962 708.5070419C962 776.9577468699999 907.4929581 834 839.04225313 834L839.04225313 834zM899.88732354 537.38028164c0-34.22535205-26.61971836-62.11267646-60.84507042-62.11267646L603.26760606 475.26760606 603.26760606 708.5070419c0 34.22535205 30.42253565 63.38028164 64.64788769 63.38028164l171.12676026 0c34.22535205 0 60.84507041-29.15492959 60.8450704-63.38028164L899.88732354 537.38028164 899.88732354 537.38028164zM899.88732354 537.38028164M62 229.35211231000005l0-171.12676026C62-11.49295810000001 120.30985917-66 188.76056328-66l171.12676026 0c68.45070411 0 122.95774688 54.5070419 122.95774687 124.22535205L482.84507041 354.84507040999995 188.76056328 354.84507040999995C120.30985917 354.84507040999995 62 297.80281729 62 229.35211231000005L62 229.35211231000005zM420.73239394 58.22535204999997c0-34.22535205-26.61971836-60.84507041-62.11267646-60.84507041L188.76056328-2.619718359999979c-34.22535205 0-63.38028164 26.61971836-63.38028164 60.84507041L125.38028164 229.35211231000005c0 34.22535205 29.15492959 64.64788769 63.38028164 64.64788769l231.97183067 0L420.73239394 58.22535204999997 420.73239394 58.22535204999997zM420.73239394 58.22535204999997M839.04225313 354.84507040999995L541.15492959 354.84507040999995l0-296.61971836c0-68.45070411 57.04225313-124.22535205 126.76056328-124.22535205l171.12676025 0c68.45070411 0 122.95774688 54.5070419 122.95774688 124.22535205L962 229.35211231000005C962 297.80281729 907.4929581 354.84507040999995 839.04225313 354.84507040999995L839.04225313 354.84507040999995zM899.88732354 58.22535204999997c0-34.22535205-26.61971836-60.84507041-60.84507042-60.84507041L667.91549287-2.619718359999979c-34.22535205 0-64.64788769 26.61971836-64.64788769 60.84507041L603.26760606 292.73239393999995l235.77464795 1e-8c34.22535205 0 60.84507041-29.15492959 60.8450704-64.6478877L899.88732354 58.22535204999997 899.88732354 58.22535204999997zM899.88732354 58.22535204999997"  horiz-adv-x="1024" />

    
    <glyph glyph-name="quxiao" unicode="&#59234;" d="M731.049948-8.615982000000031c-69.142753-38.558178-144.186913-56.845683-218.23949-56.845683-157.925822 0-311.347051 83.196841-393.597333 230.627634C-1.506307 381.78351899999996 76.465532 656.238334 292.994054 777.002792 477.856365 879.974002 712.627367 838.983425 851.2741 679.436686c12.522198-14.459317 10.991332-36.305881-3.422959-48.828079-14.459317-12.477172-36.260855-10.945283-48.828079 3.422959C681.726589 769.02919 483.126392 803.759179 326.687434 716.5530249999999 143.447063 614.392274 77.502142 382.143723 179.661869 198.85832600000003c102.160751-183.240371 334.454328-249.230318 517.694699-147.024541 156.393933 87.206154 231.303017 274.40979 178.105421 445.172989-5.675256 18.197454 4.504594 37.611619 22.747073 43.287899 18.423605 5.720282 37.656645-4.549619 43.287899-22.747073C1004.379127 315.74854600000003 915.867234 94.44527800000003 731.049948-8.615982000000031zM328.759629 418.764781c-19.098987 0-34.593889-15.494902-34.593889-34.593889s15.494902-34.593889 34.593889-34.593889l369.003192 0c19.098987 0 34.593889 15.494902 34.593889 34.593889s-15.494902 34.593889-34.593889 34.593889L328.759629 418.764781z"  horiz-adv-x="1024" />

    
    <glyph glyph-name="reset" unicode="&#58897;" d="M958.72 670.144l-96.448-246.336c-3.776-9.728-14.784-14.528-24.512-10.688l-246.4 96.512c-9.728 3.84-14.528 14.784-10.688 24.512l13.76 35.2c3.776 9.728 14.784 14.528 24.512 10.688l174.912-68.544c-50.56 124.416-171.584 212.672-314.112 212.672-187.84 0-340.16-152.32-340.16-340.16s152.256-340.16 340.16-340.16c148.032 0 273.6 94.72 320.384 226.752h79.296c-49.408-174.4-209.408-302.336-399.68-302.336-229.632 0-415.744 186.112-415.744 415.744s186.112 415.744 415.744 415.744c157.056 0 293.376-87.296 363.968-215.872l44.608 113.856c3.776 9.728 14.784 14.528 24.512 10.688l35.2-13.76c9.664-3.84 14.464-14.784 10.688-24.512z"  horiz-adv-x="1024" />

    
    <glyph glyph-name="tijiao" unicode="&#59099;" d="M890.55778133 462.71965867l-2.32106666 0c-20.81860267 0-26.886144-17.01205333-26.886144-37.87434667l0-371.9168L162.81326933 52.928511999999955 162.81326933 420.18133333c0 20.85137067-11.52341333 37.87434667-32.342016 37.87434667l3.12388267 0c-20.97698133 0-32.505856-17.01751467-32.505856-37.87434667l0-393.40714666c0-20.86775467 16.98474667-35.99018667 37.797888-35.99018667l747.21416533 0c20.14139733 0 36.798464 16.96290133 36.798464 37.31729067l0 3.51163733 0 1.163264L922.89979733 424.681472C922.90525867 445.53284267 911.38730667 462.71965867 890.55778133 462.71965867zM350.08785067 570.433536L482.07189333 702.652416l0-423.18779733c0-21.51765333 6.72836267-39.03214933 28.049408-39.03214934 21.47396267 0 33.51074133 17.678336 33.51074134 39.03214934L543.63204267 700.604416l141.03893333-135.79605333c15.1552-15.18250667 29.048832-15.18250667 44.367872 0 15.1552 15.18250667 9.69386667 40.042496-5.46133333 55.38884266l-184.01416534 178.896896c-8.49783467 8.51421867-20.14139733 12.353536-31.30436266 11.18481067-8.66167467-0.84104533-17.15950933-4.51106133-23.81141334-11.18481067l0 0L300.42248533 614.735872c-15.14973867-15.18250667-15.14973867-40.042496 0-55.38884267C315.57768533 544.16452267 334.93265067 555.08718933 350.08785067 570.433536z"  horiz-adv-x="1024" />

    
    <glyph glyph-name="naozhong" unicode="&#59203;" d="M733.92212656 15.005724320000013A412.94107881 412.94107881 0 0 0 488.63249844-65.1904333a412.94107881 412.94107881 0 0 0-245.22049336 80.19615762l-70.51731065-70.51731153a34.77471328 34.77471328 0 0 0-48.67077216 0.2074043 34.15250215 34.15250215 0 0 0-0.20740342 48.67077129l67.06058027 67.1988498a414.80771396 414.80771396 0 1 0 594.97252998 0l67.12971504-67.1988498a34.15250215 34.15250215 0 0 0-0.20740342-48.67077129 34.77471328 34.77471328 0 0 0-48.67077217-0.2074043l-70.51731064 70.51731153zM834.30559355 349.61727979a345.67309424 345.67309424 0 1 1-691.34618935 0 345.67309424 345.67309424 0 0 1 691.34618935 0z m-414.80771396 68.92721542c0.06913477 34.35990557 0 68.71981113 0.13826953 103.14885147a33.94509785 33.94509785 0 0 0 23.0909625 32.83894336 34.56730987 34.56730987 0 0 0 38.16230976-11.06153877 37.47096386 37.47096386 0 0 0 7.81221182-24.68105859c-0.06913477-60.83846455 0-121.6769291-0.13826865-182.51539453 0-5.25423076 1.38269268-8.84923154 5.04682647-12.5825001 40.72029082-40.37461787 81.23317734-80.8875044 121.67692997-121.40039092 15.55528886-15.55528886 15.20961592-38.64625224-0.48394247-51.98923388a34.22163604 34.22163604 0 0 0-46.32019454 1.24442313c-9.54057744 8.9875002-18.66634717 18.45894287-27.93038642 27.72298214C505.08653838 214.8739081 469.48220967 250.754775 433.6013419 286.01343076a44.31529073 44.31529073 0 0 0-14.10346231 34.42904033c0.48394248 32.70067471 0.13826953 65.40134941 0.13826953 98.10202412z m494.17425616 240.4502042a34.84384805 34.84384805 0 0 0-39.19932862-42.44865556 34.4981751 34.4981751 0 0 0-28.82913575 29.72788594 133.84462237 133.84462237 0 0 1-30.41923271 68.30500341c-32.90807901 38.36971318-74.87279209 54.40894541-124.99539081 49.08557988-24.88846289-2.69624971-44.03875253 17.21451972-39.33759815 40.78942471a33.94509785 33.94509785 0 0 0 30.14269365 27.44644395c76.8776959 8.71096201 140.34327627-16.79971201 189.77452911-76.04808135 22.3996166-26.8933667 35.811733-58.21134873 42.86346328-96.78846621zM292.22104677 832.6608624c5.87644278-2.00490381 12.09855849-3.18019219 17.42192403-6.08384619a33.87596308 33.87596308 0 0 0 15.97009659-39.26846338 33.87596308 33.87596308 0 0 0-36.64134844-24.6119247c-30.69577089 3.8024042-60.00884912-0.62221113-87.10961924-15.9009627-39.95981016-22.46875137-63.11990742-56.96692559-70.65558106-102.04269697a32.90807901 32.90807901 0 0 0-23.85144316-27.65384825 32.49327129 32.49327129 0 0 0-34.2907708 8.2961543 33.04634766 33.04634766 0 0 0-9.88625039 30.6957709C75.48401621 728.12931826 114.26853711 780.80989805 179.87729082 813.1648998000001c35.32779052 17.35278925 73.00615781 22.81442432 112.41288985 19.4959626z"  horiz-adv-x="1024" />

    
    <glyph glyph-name="xing" unicode="&#58892;" d="M974.318996 494.558002c-7.607258 23.483854-27.457352 40.274262-51.814086 43.818995L678.404426 573.9409800000001 569.223794 795.772274c-10.912537 22.101367-32.951483 35.83209-57.538461 35.83209 0 0-0.036839 0-0.074701-0.01842-24.606421-0.01535-46.628994-13.782911-57.467853-35.850509l-109.166305-221.794455-244.093321-35.563984c-24.337291-3.544733-44.188408-20.316721-51.80283-43.766806-7.610328-23.451108-1.400906-48.734958 16.223496-65.995063l176.632883-172.649152-41.680285-243.713674c-4.178159-24.315802 5.587252-48.433082 25.455765-62.953797 19.883863-14.491039 45.839001-16.432251 67.64668-4.931313l218.324424 115.092271 218.320331-115.092271c9.481955-5.001921 19.727297-7.469112 29.939893-7.469112 13.231349 0 26.383904 4.155646 37.617759 12.328793 19.906375 14.483876 29.704532 38.582737 25.578562 62.969147l-41.709961 243.791445L958.043311 428.595684C975.668737 445.800531 981.914998 471.084381 974.318996 494.558002z"  horiz-adv-x="1024" />

    
    <glyph glyph-name="cannotfind" unicode="&#59013;" d="M379.863503 364.06495299999995c-10.15899 10.15899-10.15899 26.781768 0 36.940758l194.080535 194.080535c10.15899 10.15899 26.781768 10.15899 36.940759 0s10.15899-26.781768 0-36.940758L416.804262 364.06495299999995c-10.15899-10.15899-26.782792-10.15899-36.940759 0zM610.884797 364.06495299999995c-10.15899-10.15899-26.781768-10.15899-36.940759 0L379.862479 558.145488c-10.15899 10.15899-10.15899 26.781768 0 36.940758s26.781768 10.15899 36.940759 0L610.883773 401.005711c10.15899-10.15899 10.15899-26.781768 0.001024-36.940758zM562.513383 150.29305499999998H293.783416c-14.366135 0-26.121362 11.754204-26.121362 26.121363 0 14.366135 11.754204 26.121362 26.121362 26.121362h268.729967c14.366135 0 26.121362-11.754204 26.121362-26.121362s-11.755227-26.121362-26.121362-26.121363zM500.068664-2.258690999999999H186.307198c-12.276385 0-22.648343 10.371958-22.648344 22.648343V747.644136c0 12.276385 10.370934 22.648343 22.648344 22.648343h618.132881c12.276385 0 22.648343-10.370934 22.648343-22.648343l-0.078839-458.257283h52.241701l0.078839 458.257283c0 41.189883-33.701185 74.891068-74.891068 74.891068H186.307198c-41.189883 0-74.891068-33.701185-74.891069-74.891068V20.390675999999985c0-41.189883 33.701185-74.891068 74.891069-74.891068H500.068664v52.241701zM498.44683-28.412818000000016m-26.121362 0a26.121362 26.121362 0 1 1 52.242724 0 26.121362 26.121362 0 1 1-52.242724 0ZM853.130945 286.315197m-26.121362 0a26.121362 26.121362 0 1 1 52.242725 0 26.121362 26.121362 0 1 1-52.242725 0ZM777.9665 104.48032999999998m-59.975107 0a59.975107 59.975107 0 1 1 119.950214 0 59.975107 59.975107 0 1 1-119.950214 0ZM891.183643-51.616107000000056H664.749356c-12.064441 0-21.935719 9.871278-21.935719 21.935719v54.298687c0 12.064441 9.871278 21.935719 21.935719 21.935719h226.434287c12.064441 0 21.935719-9.871278 21.93572-21.935719v-54.298687c0-12.064441-9.871278-21.935719-21.93572-21.935719z"  horiz-adv-x="1024" />

    
    <glyph glyph-name="jinyong" unicode="&#58904;" d="M788.92307685-66H235.07692315a69.23076943 69.23076943 0 0 0-69.23076944 69.23076943V418.61538427a69.23076943 69.23076943 0 0 0 69.23076944 69.23076945V591.69230742A242.30769258 242.30769258 0 0 0 477.38461573 834h69.23076854A242.30769258 242.30769258 0 0 0 788.92307685 591.69230742V487.84615372a69.23076943 69.23076943 0 0 0 69.23076944-69.23076945v-415.38461484a69.23076943 69.23076943 0 0 0-69.23076944-69.23076943zM719.69230742 591.69230742A173.07692315 173.07692315 0 0 1 546.61538427 764.76923057h-69.23076854A173.07692315 173.07692315 0 0 1 304.30769258 591.69230742V487.84615372h415.38461484V591.69230742z"  horiz-adv-x="1024" />

    
    <glyph glyph-name="qiyong" unicode="&#58949;" d="M769.14285752-66H254.85714248a64.28571416 64.28571416 0 0 0-64.28571416 64.28571416V384a64.28571416 64.28571416 0 0 0 64.28571416 64.28571416h35.61428584l-20.89285665 54A226.28571416 226.28571416 0 0 0 400.85 795.42857168l60.94285752 23.14285664a229.11428584 229.11428584 0 0 0 295.39285664-130.49999999l11.76428584-30.21428585-60.94285752-23.14285664-11.76428496 30.21428583a163.67142833 163.67142833 0 0 1-210.98571504 93.21428585l-60.94285664-23.14285752A161.87142832 161.87142832 0 0 1 330.52142833 525.42857168L360.41428584 448.28571416H769.14285752a64.28571416 64.28571416 0 0 0 64.28571416-64.28571416v-385.71428584a64.28571416 64.28571416 0 0 0-64.28571416-64.28571416z"  horiz-adv-x="1024" />

    
    <glyph glyph-name="layers" unicode="&#58948;" d="M83.895296 567.704576L499.171328 341.270528c4.368384-1.74592 8.737792-2.623488 13.115392-2.623488 4.368384 0 9.61536 1.74592 13.115392 2.623488l420.512768 226.433024c9.61536 5.245952 14.861312 13.983744 13.99296 25.353216 0 10.491904-5.245952 20.107264-14.861312 24.475648L529.770496 828.228608c-8.747008 4.3776-17.483776 4.3776-25.353216 0l-419.644416-210.695168c-9.61536-4.368384-15.737856-13.983744-15.737856-24.475648-0.001024-11.369472 5.244928-20.107264 14.860288-25.353216z m432.759808 204.571648L871.600128 591.311872 512.28672 398.10048l-354.95424 193.211392 359.322624 180.964352z m423.144448-360.192l-83.060736 41.96864-59.444224-32.354304 69.936128-35.84512-359.322624-193.211392-354.945024 193.211392 74.313728 37.600256-59.45344 32.345088-88.297472-43.71456c-20.107264-10.491904-20.984832-39.346176-0.877568-49.828864l415.276032-226.433024c4.368384-2.623488 9.61536-3.500032 13.983744-3.500032 4.3776 0 8.747008 0.877568 13.115392 3.500032l419.644416 226.433024c20.107264 10.482688 20.107264 39.33696-0.868352 49.828864z m0-195.833856l-78.683136 38.468608-59.45344-32.345088 65.567744-32.354304-359.322624-193.211392-354.945024 193.211392 69.067776 31.476736-59.45344 32.345088-83.05152-37.59104c-20.107264-10.491904-20.984832-39.346176-0.877568-49.828864l415.276032-226.433024c5.245952-1.755136 8.737792-3.500032 13.983744-3.500032 4.3776 0 8.747008 0.877568 13.115392 3.500032l419.644416 226.433024c20.107264 10.482688 20.107264 39.33696-0.868352 49.828864z"  horiz-adv-x="1024" />

    
    <glyph glyph-name="mi" unicode="&#59604;" d="M522.35870815 137.52926815h-3.80131556c-20.96355555 0-38.11783111 17.152-38.11783111 38.11441777v423.97013333c0 20.96355555 17.152 38.11669333 38.11669334 38.11669334h3.80245333c20.96241778 0 38.11441778-17.15313777 38.11441777-38.11669334v-423.96672c0-20.96355555-17.152-38.11669333-38.11441777-38.11669333v0zM304.81559703 260.93378370000005l-1.90236444 3.29386667c-10.48462222 18.15324445-4.20522667 41.58464 13.94801778 52.06584888l367.16999111 211.98620445c18.15210667 10.48007111 41.58464 4.20067556 52.06584889-13.95143111l1.90122666-3.29272889c10.48007111-18.15324445 4.20181333-41.58464-13.95256888-52.06584888l-367.16771556-211.98734223c-18.15324445-10.4812089-41.58464-4.20181333-52.06584889 13.95143111v0zM302.91437036 511.03326815l1.90236447 3.29386668c10.48007111 18.15324445 33.91032887 24.43264 52.06584887 13.95143109l367.16771555-211.98734222c18.15665778-10.4812089 24.43264-33.91146667 13.9525689-52.06698667l-1.90122667-3.29272888c-10.4812089-18.15324445-33.91146667-24.43150222-52.06698666-13.95143112l-367.16999112 211.98620445c-18.15324445 10.48462222-24.43264 33.91032887-13.94801778 52.06584888v0z"  horiz-adv-x="1024" />

    
    <glyph glyph-name="guanbi" unicode="&#58880;" d="M686.523125 249.59343750000005l-134.401875 134.401875 134.398125 134.398125c11.079375 11.079375 11.079375 29.04375 0 40.123125s-29.04375 11.0784375-40.1221875-0.0009375l-134.398125-134.3971875-134.405625 134.405625c-11.079375 11.079375-29.0428125 11.079375-40.1184375 0.001875-11.079375-11.079375-11.079375-29.0428125 0-40.12125l134.4028125-134.401875-134.3990625-134.4009375c-11.0765625-11.075625-11.0728125-29.0428125 0.0065625-40.12125 11.0746875-11.0746875 29.04375-11.079375 40.1184375-0.0046875l134.3990625 134.3990625 134.401875-134.401875c11.079375-11.079375 29.0428125-11.079375 40.12125 0 11.079375 11.079375 11.0775 29.04-0.001875 40.119375v0zM686.523125 249.59343750000005zM511.9990625 833.9990625c-248.20875 0-449.99625-201.920625-449.99625-450.0028125 0-248.075625 201.7884375-449.99625 449.99625-449.99625 248.0765625 0 449.9971875 201.920625 449.9971875 449.99625 0 248.0803125-201.8559375 450.0028125-449.9971875 450.0028125zM511.9990625-5.958750000000009c-215.2921875 0-390.46875 174.9834375-390.46875 389.9540625-0.0046875 215.03625 175.108125 390.024375 390.46875 390.024375 215.2303125 0 390.4059375-174.98625 390.4059375-390.0234375 0-215.026875-175.1803125-389.9559375-390.4059375-389.9559375z"  horiz-adv-x="1024" />

    
    <glyph glyph-name="jiaoseguanli1" unicode="&#59003;" d="M511.7 831.9c-106.8 0-193.3-86.6-193.3-193.4S405 445.1 511.7 445.1 705 531.7 705 638.5 618.5 831.9 511.7 831.9zM641.3 447.7H582l-70.4-384-70.4 384H382c-140.4 0-254.3-113.9-254.3-254.3v-221.2c0-20.1 16.3-36.4 36.4-36.4h695c20.1 0 36.4 16.3 36.4 36.4V193.4c0.1 140.4-113.7 254.3-254.2 254.3z m126.4-320h-128v128h128v-128z"  horiz-adv-x="1024" />

    
    <glyph glyph-name="gaojing" unicode="&#58889;" d="M961.578667 114.47466699999995l-87.893334 105.130666v191.957334c0 157.568-112 294.826667-260.736 338.773333v38.442667c0 46.933333-36.906667 85.12-82.304 85.12h-37.418666c-45.312 0-82.218667-38.186667-82.218667-85.12v-38.442667c-148.736-43.946667-260.778667-181.205333-260.778667-338.773333v-191.957334l-87.850666-105.130666A29.952 29.952 0 0 1 85.333333 65.40800000000002h853.333334a29.866667 29.866667 0 0 1 22.912 49.066667zM470.741333 788.778667c0 13.994667 10.069333 25.344 22.442667 25.344h37.461333c12.458667 0 22.528-11.392 22.528-25.344v-26.24c-13.568 1.621333-27.264 2.645333-41.173333 2.645333s-27.648-1.024-41.216-2.602667v26.197334zM149.205333 125.18399999999997l53.845334 64.426667a29.952 29.952 0 0 1 6.954666 19.157333v202.794667c0 159.274667 138.282667 293.888 301.994667 293.888 163.669333 0 301.994667-134.570667 301.994667-293.888v-202.794667c0-6.997333 2.474667-13.781333 6.954666-19.157333l53.888-64.426667H149.205333zM608 30.549333000000047a29.866667 29.866667 0 0 1-29.866667-29.866666c0-18.133333-28.288-38.357333-66.133333-38.357334-38.997333 0-66.133333 20.224-66.133333 38.357334a29.866667 29.866667 0 1 1-59.733334 0c0-54.997333 55.296-98.133333 125.909334-98.133334s125.866667 43.136 125.866666 98.133334a29.952 29.952 0 0 1-29.909333 29.866666z"  horiz-adv-x="1024" />

    
    <glyph glyph-name="screen-min" unicode="&#58882;" d="M850.072776-66.74386800000002L173.927224-66.74386800000002c-62.23287 0-112.691096 50.455135-112.691096 112.685455L61.236129 722.059436c0 62.23032 50.458226 112.686479 112.691096 112.686479l676.145551 0c62.23287 0 112.690072-50.456159 112.690072-112.686479l0-676.117848C962.762848-16.28975600000001 912.305645-66.74386800000002 850.072776-66.74386800000002zM906.4173 722.059436c0 31.114648-25.228601 56.343239-56.345548 56.343239L173.927224 778.402675c-31.115923 0-56.345548-25.227568-56.345548-56.343239l0-676.117848c0-31.114648 25.228601-56.343239 56.345548-56.343239l676.145551 0c31.115923 0 56.345548 25.227568 56.345548 56.343239L906.418324 722.059436zM821.898978 412.17162l-252.755731-0.027629c-7.896154 0-14.96749 3.273557-20.057623 8.501628-5.447282 4.622274-8.913362 11.362792-8.913362 19.698644L540.172262 693.886793c0 15.544021 12.600485 28.17162 28.171751 28.17162s28.172774-12.627598 28.172774-28.17162l-0.880079-185.233772 191.211574 191.231369 39.837919-39.836287L635.145109 468.514859l186.75387 0c15.572288 0 28.172774-12.627598 28.172774-28.17162C850.072776 424.771589 837.471267 412.17162 821.898978 412.17162zM455.65394 45.941588000000024c-15.557962 0-28.172774 12.599969-28.172774 28.17162l0.894406 185.205119L237.150695 68.11560999999995l-39.851223 39.83731 191.541092 191.533244L202.099998 299.48616400000003c-15.558985 0-28.172774 12.599969-28.172774 28.17162 0 15.542998 12.614812 28.170596 28.172774 28.170596l252.756754 0c7.881827 0 14.966466-3.245927 20.069903-8.472975 5.447282-4.622274 8.900059-11.362792 8.900059-19.697621l0-253.544577C483.827738 58.54155700000001 471.212925 45.941588000000024 455.65394 45.941588000000024z"  horiz-adv-x="1024" />

    
    <glyph glyph-name="screen-big" unicode="&#58883;" d="M852.68743-70.23231799999996L171.311547-70.23231799999996c-62.714867 0-113.562988 50.846038-113.562988 113.558335L57.748558 724.6750059999999c0 62.712297 50.848122 113.558335 113.562988 113.558335l681.376907 0c62.714867 0 113.562988-50.846038 113.562988-113.558335l0-681.348989C966.250418-19.386280000000056 915.40332-70.23231799999996 852.68743-70.23231799999996zM909.469948 724.6750059999999c0 31.356149-25.424061 56.779168-56.781494 56.779168L171.311547 781.454174c-31.357433 0-56.781494-25.423019-56.781494-56.779168l0-681.348989c0-31.357172 25.424061-56.779168 56.781494-56.779168l681.376907 0c31.358457 0 56.781494 25.423019 56.781494 56.779168L909.469948 724.6750059999999zM824.297706 412.389584c-15.665413 0-28.390747 12.697183-28.390747 28.389584l0.887243 186.638771L604.102866 434.735521l-40.145947 40.144302 193.023924 193.016015L568.782006 667.895839c-15.693044 0-28.390747 12.697183-28.390747 28.389584s12.697704 28.389584 28.390747 28.389584l254.711349 0c7.929925 0 15.082105-3.27151 20.238756-8.53949 5.490263-4.657067 8.955319-11.449773 8.955319-19.850094l0-255.506255C852.68743 425.086767 839.989727 412.389584 824.297706 412.389584zM455.219017 43.32601699999998L200.506645 43.32601699999998c-7.929925 0-15.082105 3.270487-20.239779 8.538467-5.489239 4.65809-8.955319 11.423167-8.955319 19.850094L171.311547 327.220832c0 15.692401 12.726357 28.389584 28.390747 28.389584 15.69202 0 28.390747-12.697183 28.390747-28.389584l-0.887243-186.6664 192.690312 192.710047 40.173577-40.143279-193.050531-193.016015 188.198837 0c15.69202 0 28.390747-12.697183 28.390747-28.389584C483.608741 56.023199999999974 470.911038 43.32601699999998 455.219017 43.32601699999998z"  horiz-adv-x="1024" />

    
    <glyph glyph-name="shouquan" unicode="&#58890;" d="M336.00000031 432c-16.00000031 16.00000031-37.33333312 16.00000031-48 0-16.00000031-16.00000031-16.00000031-37.33333312 0-48l144-149.33333344c5.33333344-5.33333344 16.00000031-10.66666687 26.66666625-10.66666687s16.00000031 5.33333344 26.66666719 10.66666687l277.33333313 271.99999969c16.00000031 16.00000031 16.00000031 37.33333312 0 48-16.00000031 16.00000031-37.33333312 16.00000031-48 0L458.66666656 309.33333374999995 336.00000031 432zM901.33333344 730.66666688L522.66666687 864h-21.33333374L122.66666656 730.66666688c-16.00000031-5.33333344-26.66666625-16.00000031-26.66666625-32.00000063v-405.33333281c10.66666687-234.66666656 384-384 399.99999938-389.33333344h21.33333375c16.00000031 5.33333344 389.33333344 149.33333344 400.00000031 389.33333344V698.6666662499999c10.66666687 16.00000031 0 26.66666625-16.00000031 32.00000063z m-42.66666657-432c-5.33333344-170.66666625-282.66666656-293.33333344-346.66666687-320.00000063-106.66666688 42.66666656-336 170.66666625-346.66666688 320.00000063v373.33333312L512 794.66666625l346.66666688-117.33333281v-378.66666657z"  horiz-adv-x="1024" />

    
    <glyph glyph-name="xuqiuxinxi" unicode="&#59130;" d="M425.1648 248.4224c-5.3248 0-10.6496 2.048-14.5408 5.9392-5.3248 5.3248-7.3728 13.312-5.12 20.6848l14.7456 46.2848c1.024 3.072 2.6624 5.9392 5.12 8.192L795.2384 699.5968c7.9872 7.9872 20.8896 7.9872 28.8768 0l31.5392-31.5392c7.9872-7.9872 7.9872-20.8896 0-28.8768L485.7856 269.1072c-2.2528-2.2528-5.12-4.096-8.192-5.12l-46.2848-14.7456c-2.048-0.6144-4.096-0.8192-6.144-0.8192zM841.3184 44.6464H182.6816c-11.264 0-20.48 9.216-20.48 20.48V729.4976c0 11.264 9.216 20.48 20.48 20.48h498.8928c11.264 0 20.48-9.216 20.48-20.48s-9.216-20.48-20.48-20.48H203.1616v-623.4112h617.6768V504.2176c0 11.264 9.216 20.48 20.48 20.48s20.48-9.216 20.48-20.48v-439.0912c0-11.264-9.216-20.48-20.48-20.48zM572.6208 595.3536H275.0464c-11.264 0-20.48 9.216-20.48 20.48s9.216 20.48 20.48 20.48h297.5744c11.264 0 20.48-9.216 20.48-20.48s-9.216-20.48-20.48-20.48zM758.5792 139.0592h-483.328c-11.264 0-20.48 9.216-20.48 20.48s9.216 20.48 20.48 20.48h483.328c11.264 0 20.48-9.216 20.48-20.48s-9.216-20.48-20.48-20.48zM758.5792 291.2256H641.024c-11.264 0-20.48 9.216-20.48 20.48s9.216 20.48 20.48 20.48h117.5552c11.264 0 20.48-9.216 20.48-20.48s-9.216-20.48-20.48-20.48zM336.4864 291.2256h-61.2352c-11.264 0-20.48 9.216-20.48 20.48s9.216 20.48 20.48 20.48h61.2352c11.264 0 20.48-9.216 20.48-20.48s-9.216-20.48-20.48-20.48zM421.888 443.1872h-146.6368c-11.264 0-20.48 9.216-20.48 20.48s9.216 20.48 20.48 20.48H421.888c11.264 0 20.48-9.216 20.48-20.48s-9.216-20.48-20.48-20.48z"  horiz-adv-x="1024" />

    
    <glyph glyph-name="jiaoseguanli2" unicode="&#59157;" d="M677.42372844 310.77966094c-32.5423725 16.27118625-65.08474594 32.5423725-97.62711845 43.38983062 81.35593219 48.81355969 135.59322 135.59322 135.59322095 233.22033938 0 151.86440719-119.32203375 271.18644094-271.18644095 271.18644s-271.18644094-119.32203375-271.18644093-271.18644c0-108.47457655 59.66101687-195.25423689 151.86440719-244.0677975-157.28813531-54.23728781-276.61016906-200.67796594-287.45762719-379.66101657l54.23728781-5.42372906c16.27118625 211.52542406 195.25423689 368.81355938 406.77966094 352.54237313 54.23728781-5.42372906 103.0508475-16.27118625 146.44067813-43.38983063 5.42372906 16.27118625 16.27118625 32.5423725 32.5423725 43.38983063zM444.20338999 370.44067781c-119.32203375 0-216.94915219 97.62711844-216.94915312 216.94915313s97.62711844 216.94915219 216.94915314 216.94915219 216.94915219-97.62711844 216.94915218-216.94915219-97.62711844-216.94915219-216.9491522-216.94915313zM910.64406781 402.98305125c-21.69491531 16.27118625-48.81355969 27.11864437-75.93220312 37.96610156 70.508475 37.96610156 113.89830469 113.89830469 113.89830468 195.25423688C948.61016937 760.9491525 845.55932187 864 720.81355906 864c-27.11864437 0-48.81355969-5.42372906-75.93220312-10.84745719 16.27118625-10.84745719 32.5423725-27.11864437 43.38983062-43.38983062h32.5423725c97.62711844 0 173.5593225-75.93220313 173.5593225-173.5593225 0-86.77966125-59.66101687-157.28813531-141.01694906-168.13559344-5.42372906-21.69491531-10.84745719-43.38983063-21.69491531-59.66101687h10.84745719c43.38983063-5.42372906 81.35593219-16.27118625 113.89830562-32.5423725 16.27118625 5.42372906 32.5423725 16.27118625 54.23728781 27.11864437zM1029.96610156 175.18644094c-5.42372906 10.84745719-5.42372906 21.69491531-10.84745719 32.5423725-5.42372906 10.84745719 37.96610156 54.23728781 27.11864344 65.08474593l-32.5423725 32.5423725c-5.42372906 0-10.84745719 0-16.27118625-5.42372812-10.84745719-5.42372906-27.11864437-21.69491531-37.96610156-27.11864438-5.42372906 0-5.42372906-5.42372906-10.84745813 0-10.84745719 5.42372906-16.27118625 10.84745719-27.11864437 10.8474572-10.84745719 5.42372906-10.84745719 65.08474594-21.69491438 65.08474593h-43.38983062c-10.84745719-5.42372906-10.84745719-59.66101687-21.69491531-65.08474593-10.84745719-5.42372906-21.69491531-5.42372906-32.54237344-10.8474572-10.84745719-5.42372906-54.23728781 37.96610156-65.08474594 27.11864438l-32.5423725-32.54237344c-10.84745719-10.84745719 32.5423725-54.23728781 32.5423725-65.08474594-5.42372906-10.84745719-10.84745719-16.27118625-10.84745719-27.11864343l-5.42372906-5.42372907c-10.84745719-5.42372906-43.38983063-5.42372906-59.66101687-16.27118625-5.42372906 0-5.42372906-5.42372906-5.42372907-5.42372905v-43.38983063c0-16.27118625 65.08474594-16.27118625 65.08474594-27.11864344 5.42372906-10.84745719 5.42372906-21.69491531 10.84745813-32.54237344 5.42372906-10.84745719-37.96610156-54.23728781-27.11864438-65.08474595l32.5423725-32.54237249c5.42372906 0 10.84745719 0 16.27118719 5.42372907 10.84745719 5.42372906 27.11864437 21.69491531 37.96610156 27.11864342 5.42372906 0 5.42372906 5.42372906 10.84745719 0 10.84745719-5.42372906 16.27118625-10.84745719 27.11864437-10.84745717 10.84745719-5.42372906 10.84745719-65.08474594 21.69491532-65.08474594h43.38983062c10.84745719 5.42372906 10.84745719 59.66101687 21.69491531 65.08474594 10.84745719 5.42372906 21.69491531 5.42372906 32.5423725 10.84745717 10.84745719 5.42372906 54.23728781-37.96610156 65.08474594-27.11864342l32.5423725 32.5423725c10.84745719 10.84745719-32.5423725 54.23728781-32.5423725 65.08474593 5.42372906 10.84745719 10.84745719 16.27118625 10.84745719 27.11864438l5.42372906 5.42372812c10.84745719 5.42372906 43.38983063 5.42372906 59.66101688 16.27118625 5.42372906 0 5.42372906 5.42372906 5.42372906 5.42372907v43.38983061c0 16.27118625-59.66101687 16.27118625-65.08474594 27.11864439z m-151.86440625-141.01694907c-54.23728781 0-97.62711844 43.38983063-97.62711937 97.62711844s43.38983063 97.62711844 97.62711937 97.62711844 97.62711844-43.38983063 97.62711844-97.62711844-43.38983063-97.62711844-97.62711844-97.62711844z"  horiz-adv-x="1157" />

    
    <glyph glyph-name="xitongpeizhi" unicode="&#58925;" d="M773.993 316.37199999999996c-36.431-0.049-65.952-29.568-66.001-65.995 0.049-36.437 29.569-65.958 65.99599999-66.005 36.431 0.05 65.946 29.572 65.982 65.997-0.037 36.431-29.552 65.954-65.97399999 66.003M773.993 120.51499999999999c-71.684 0.085-129.772 58.174-129.858 129.849 0 71.6 58.265 129.864 129.858 129.864 71.572 0 129.857-58.265 129.857-129.857 0-71.614-58.285-129.858-129.857-129.858M852.614 30.772000000000048c0.301-0.215 1.158-0.514 2.03499999-0.514h0.10700001l62.828 34.714c-1.499 3.536-8.443 20.636-8.44300001 38.443 0.038 53.347 41.815 96.924 94.437 99.845 1.006 4.169 5.141 27.719 5.14100001 45.398s-4.135 41.207-4.88600001 45.385c-52.867 2.933-94.633 46.488-94.692 99.812 0 17.894 6.965 34.995 8.44300001 38.51l-61.799 34.328-0.258 0.022c-0.002 0-0.005 0-0.007 0-0.875 0-1.693-0.239-2.393-0.655-19.08-19.049-42.621-33.67-68.91500001-42.165 27.001 9.606 9.023 2.813-7.49899999 2.813-16.628 0-34.8 6.922-53.957 20.572-22.418 16.043-40.464 36.776-52.957 60.854 29.265-40.879 28.43-40.648 27.54199999-40.647h-0.192l-64.00599999-35.185c1.499-3.557 8.421-20.637 8.421-38.443-0.064-53.335-41.843-96.893-94.46000001-99.802-1.005-4.169-5.097-27.719-5.097-45.398s4.092-41.228 4.86400001-45.407c52.882-2.922 94.665-46.493 94.71499999-99.833 0-17.874-7.008-35.038-8.508-38.488l60.62200001-33.878h0.12799999c0.9 0 1.714 0.321 2.03600001 0.514 19.262 20.097 43.143 35.613 69.945 44.855-27.302-10.269-8.853-3.026 8.13999999-3.026 17.185 0 35.785-7.373 55.32800001-21.901 13.114-9.728 22.2-19.499 23.336-20.722M872.542-64.49900000000002c-12.107 0.022-23.85 5.014-31.43500001 13.372-10.35 11.335-43.072 40.822-69.9 40.822-26.614 0-59.872-29.679-69.42799999-40.028-7.565-8.25-19.222-13.157-31.2-13.157-5.7 0-11.078 1.092-15.98500001 3.257l-0.85699999 0.364-81.47200001 45.557-0.81399999 0.6c-9.923 7.179-16.306 18.725-16.306 31.76 0 5.591 1.175 10.909 3.28999999 15.719-0.055-0.122 7.402 17.064 7.40200001 32.792-0.061 47.669-38.688 86.296-86.351 86.357h-3.435c-13.628 0-24.75 12.129-28.28600001 30.858-0.3 1.499-6.965 37.072-6.96499999 65.078 0 28.049 6.643 63.599 6.943 65.143 3.622 18.964 14.935 31.157 28.84299999 30.835h2.87200001c47.689 0.061 86.331 38.709 86.37799999 86.395 0 15.69-7.458 32.875-7.52299999 33.068-2.001 4.536-3.165 9.824-3.165 15.385 0 13.064 6.427 24.627 16.291 31.7l0.95199999 0.658 85.99300001 47.25 0.9 0.365c4.822 2.078 10.115 3.107 15.729 3.107 11.958 0 23.635-4.778 31.285-12.858 10.178-10.65 42.343-38.357 68.357-38.357 25.8 0 57.793 27.172 67.92799999 37.628 7.607 7.908 19.2 12.6 31.02800001 12.6 5.722 0 11.122-1.072 16.07199999-3.214l0.85700001-0.364 83.036-46.158 0.835-0.578c14.85-10.329 20.508-30.665 13.136-47.228-0.043-0.128-7.5-17.315-7.5-32.999 0.061-47.674 38.685-86.306 86.35-86.379h2.9c13.865 0.3 25.242-11.872 28.843-30.857 0.278-1.5 6.943-37.093 6.94299999-65.101 0-28.028-6.665-63.642-6.98599999-65.143-3.557-18.942-14.935-31.135-28.8-30.815h-2.892c-47.672-0.073-86.296-38.705-86.357-86.372 0-15.692 7.457-32.921 7.521-33.07 2.006-4.546 3.173-9.847 3.173-15.419 0-13.058-6.411-24.62-16.257-31.708l-0.93100001-0.68-84.49299999-46.671-0.85700001-0.365c-4.557-1.991-9.867-3.151-15.44799999-3.151-0.083 0-0.167 0-0.249 0.001zM1067.714 555.429c0-0.002 0-0.005 0-0.007 0-23.67-19.188-42.857-42.85700001-42.857-23.67 0-42.857 19.188-42.85699999 42.857 0 0.002 0 0.005 0 0.007v171.365c0 11.828-9.557 21.493-21.365 21.493h-771.55700001c-11.657 0-21.364-9.642-21.36399999-21.493v-514.157c0-11.828 9.557-21.493 21.365-21.493h192.921c0.002 0 0.005 0 0.007 0 23.67 0 42.857-19.188 42.857-42.857 0-23.67-19.188-42.857-42.857-42.857-0.002 0-0.005 0-0.007 0h-257.01400001c-0.038 0-0.083 0-0.12799999 0-23.669 0-42.857 19.188-42.857 42.856v642.857c0 23.677 19.243 42.857 42.98499999 42.857h899.742c0.037 0 0.083 0 0.12800001 0 23.67 0 42.857-19.188 42.857-42.857 0 0 0 0 0 0v-235.714zM274.85699999-23.142000000000053c0 23.678 19.329 42.857 43.05100001 42.857h171.042c0.002 0 0.005 0 0.007 0 23.67 0 42.857-19.188 42.857-42.857 0-23.67-19.188-42.857-42.857-42.857-0.002 0-0.005 0-0.007 0h-171.02200001c-0.063 0-0.139-0.001-0.21499999-0.001-23.67 0-42.857 19.188-42.857 42.857 0 0 0 0 0 0.001z"  horiz-adv-x="1169" />

    
    <glyph glyph-name="chakan" unicode="&#58881;" d="M608.64285693-1.7142858400000023H214.18571445a87.12857109 87.12857109 0 0 0-87.08571474 87.12857198V681.7285710900001A87.12857109 87.12857109 0 0 0 214.14285722 768.85714307h596.27142862a86.61428613 86.61428613 0 0 0 61.67142861-25.54285693c16.45714248-16.45714248 25.45714248-38.31428584 25.45714248-61.62857227l-1.37142861-394.37142803v-0.08571446a32.14285752 32.14285752 0 0 1 64.28571416-0.12857167l1.28571504 394.45714336v0.1285708a151.28571445 151.28571445 0 0 1-151.28571445 151.32857168H214.14285722A151.15714278 151.15714278 0 0 1 62.94285723 681.7285710900001v-596.31428496a151.15714278 151.15714278 0 0 1 151.28571445-151.28571446h394.41428525a32.05714307 32.05714307 0 0 1 0 64.11428526zM952.52857138-11.142857219999996l-122.48571445 122.48571445a192.85714248 192.85714248 0 1 1-45.38571416-45.38571416l122.48571445-122.48571445a32.05714307 32.05714307 0 0 1 45.38571416 45.38571415z m-279.51428583 105.64285693a128.44285752 128.44285752 0 1 0 0 256.92857138 128.44285752 128.44285752 0 0 0 0-256.92857138zM769.35714278 543.85714307a32.14285752 32.14285752 0 0 1-1e-8 64.37142861L255.62857168 608.35714248a32.14285752 32.14285752 0 0 1 0-64.37142861l513.72857109-0.17142803z m-321.08571387-192.42857198a32.05714307 32.05714307 0 1 1 0 64.11428613H255.62857168a32.05714307 32.05714307 0 1 1 0-64.0714289l192.64285723-0.08571446zM255.71428614 222.98571445000005a32.05714307 32.05714307 0 1 1 0-64.11428612h128.39999941a32.05714307 32.05714307 0 1 1 0 64.0714289l-128.39999941 0.04285722z"  horiz-adv-x="1024" />

    
    <glyph glyph-name="import" unicode="&#58955;" d="M921.6 390.826667c-20.48 0-34.133333-13.653333-34.133333-34.133334v-293.546666c0-20.48-13.653333-34.133333-34.133334-34.133334H170.666667c-20.48 0-34.133333 13.653333-34.133334 34.133334v283.306666c0 20.48-13.653333 34.133333-34.133333 34.133334s-34.133333-13.653333-34.133333-34.133334v-283.306666c0-58.026667 44.373333-102.4 102.4-102.4h682.666666c58.026667 0 102.4 44.373333 102.4 102.4v293.546666c0 20.48-13.653333 34.133333-34.133333 34.133334zM498.346667 230.39999999999998c6.826667-10.24 27.306667-10.24 34.133333-3.413333 10.24 10.24 160.426667 170.666667 170.666667 180.906666 6.826667 10.24 0 20.48-17.066667 20.48h-133.12V814.08c0 20.48-17.066667 37.546667-37.546667 37.546667-20.48 0-37.546667-17.066667-37.546666-37.546667v-385.706667h-129.706667c-13.653333 0-27.306667-10.24-17.066667-20.48 0-10.24 153.6-163.84 167.253334-177.493333z"  horiz-adv-x="1024" />

    
    <glyph glyph-name="export" unicode="&#58956;" d="M921.6 384c-20.48 0-34.133333-13.653333-34.133333-34.133333v-293.546667c0-20.48-13.653333-34.133333-34.133334-34.133333H170.666667c-20.48 0-34.133333 13.653333-34.133334 34.133333v283.306667c0 20.48-13.653333 34.133333-34.133333 34.133333s-34.133333-13.653333-34.133333-34.133333v-283.306667c0-58.026667 44.373333-102.4 102.4-102.4h682.666666c58.026667 0 102.4 44.373333 102.4 102.4V349.866667c0 20.48-13.653333 34.133333-34.133333 34.133333zM341.333333 636.586667h133.12v-385.706667c0-20.48 17.066667-37.546667 37.546667-37.546667 20.48 0 37.546667 17.066667 37.546667 37.546667V636.586667h129.706666c13.653333 0 27.306667 10.24 17.066667 20.48-6.826667 6.826667-160.426667 163.84-170.666667 174.08-6.826667 10.24-27.306667 10.24-34.133333 3.413333-10.24-10.24-160.426667-170.666667-170.666667-180.906667-3.413333-6.826667 3.413333-17.066667 20.48-17.066666z"  horiz-adv-x="1024" />

    
    <glyph glyph-name="xuanze" unicode="&#58961;" d="M512-96A480 480 0 1 0 512 864a480 480 0 0 0 0-960zM512 795.42857156a411.42857156 411.42857156 0 1 1 0-822.85714312A411.42857156 411.42857156 0 0 1 512 795.42857156z m-48.48-619.61142843a34.28571469 34.28571469 0 0 0-48.48 0L269.53142844 321.32571469000004a34.28571469 34.28571469 0 0 0 48.54857156 48.48l121.16571469-121.23428625 266.67428531 266.67428625a34.28571469 34.28571469 0 0 0 48.48-48.48l-290.88-290.94857157z"  horiz-adv-x="1024" />

    
    <glyph glyph-name="fangan" unicode="&#58894;" d="M134.4 512c0 102.4 38.4 192 108.8 268.8C320 857.6 403.2 889.6 512 889.6c102.4 0 192-38.4 268.8-108.8C851.2 704 889.6 614.4 889.6 512V454.4l-6.4-38.4v-6.4c-6.4-12.8-6.4-25.6-12.8-38.4-6.4-12.8-12.8-25.6-12.8-38.4l-19.2-38.4c-6.4-12.8-19.2-25.6-25.6-38.4l-25.6-25.6-12.8-12.8s-6.4 0-6.4-6.4l-19.2-12.8h-6.4c-12.8-6.4-19.2-19.2-25.6-32-6.4-12.8-12.8-19.2-12.8-25.6-6.4-6.4-12.8-6.4-32-6.4H371.2c-12.8 0-25.6 0-32 6.4-6.4 6.4-12.8 12.8-19.2 25.6-6.4 12.8-12.8 19.2-25.6 32h-6.4l-19.2 12.8-6.4 6.4-6.4 6.4v12.8l-32 25.6c-19.2 25.6-32 51.2-44.8 76.8-12.8 12.8-12.8 25.6-19.2 38.4-6.4 12.8-12.8 25.6-12.8 38.4 0 12.8-6.4 19.2-6.4 38.4v12.8c-6.4 12.8-6.4 32-6.4 44.8m224-441.6h313.6c19.2 0 32-12.8 32-32s-12.8-32-32-32H358.4c-19.2 0-32 12.8-32 32s12.8 32 32 32m12.8-128h288l-115.2-57.6c-19.2-6.4-38.4-6.4-57.6 0l-115.2 57.6M544 704c38.4 0 76.8-12.8 108.8-44.8 32-32 51.2-70.4 51.2-121.6 0-12.8 12.8-32 32-32s32 12.8 32 32c0 70.4-19.2 121.6-64 166.4-44.8 38.4-96 64-153.6 64-25.6 0-38.4-12.8-38.4-32s12.8-32 32-32m0 0z"  horiz-adv-x="1024" />

    
    <glyph glyph-name="baocun" unicode="&#58929;" d="M809.69082031 826.25332031L214.36103516 826.25683594C129.21699219 818.65957031 62 747.73359375 62 660.62431641v-557.12285157c0-92.13046875 74.96542969-167.09589844 167.09589844-167.09589843h565.80908203c92.13046875 0 167.09589844 74.96542969 167.09589844 167.09589843V660.62431641C962 747.70722656 894.82519531 818.63056641 809.69082031 826.25332031zM756.74990234 774.77929687v-367.5375H267.30195312V774.77929687h489.44794922z m152.30917969-671.27783203c0-62.91914062-51.23496094-114.15410156-114.15410156-114.15410157H229.09589844c-62.94550781 0-114.15410156 51.23496094-114.15410157 114.15410157V660.62431641c0 57.9234375 43.48300781 105.37207031 99.42011719 112.69072265v-419.01503906h595.32978516V773.30888672c55.91074219-7.34150391 99.36826172-54.78662109 99.36826172-112.68457031v-557.12285157zM592.75917969 665.66835938h54.82529297v-182.84765627h-54.82529297z"  horiz-adv-x="1024" />

    
    <glyph glyph-name="black" unicode="&#58888;" d="M796.47600001 577.038c0 161.625-130.21200001 292.343-291.32900001 292.343s-291.329-130.719-291.329-292.343 130.21200001-292.343 291.329-292.343 291.329 130.719 291.32899999 292.343zM264.481 577.038c0 133.251 107.919 241.678 240.664 241.67800001s240.664-108.426 240.664-241.67800001-107.919-241.678-240.664-241.678-240.664 107.919-240.664 241.678zM821.303 339.92100000000005c-118.051 0-213.304-95.253-213.304-213.304s95.253-213.304 213.304-213.304 213.304 95.253 213.304 213.304-95.253 213.304-213.304 213.304zM662.718 126.61699999999996c0 87.65200001 70.933 158.585 158.585 158.585 34.959 0 68.905-12.159 96.772-33.439l-230.531-210.265c-16.213 25.839-24.826 55.226-24.826 85.119zM821.303-32.47500000000002c-34.959 0-68.905 12.159-96.772 33.43899999l230.531 210.26500001c15.706-24.32 25.33200001-53.706 25.332-84.612-0.507-87.65200001-71.44-159.091-159.091-159.091zM639.41200001-72.50099999999998c-0.507 0.507-0.507 0.507-2e-8 0l-576.57999999 0.507c10.134 125.146 92.719 237.624 220.904 301.969 12.666 6.081 17.733 21.786 11.146 33.946-6.081 12.666-21.28 17.733-33.946 11.146-153.01199999-76.506-249.784-216.85-249.784-372.396v-25.332h625.219c14.186 0 25.33200001 11.146 25.332 25.332 0 13.173-9.627 23.813-22.293 24.826z"  horiz-adv-x="1034" />

    
    <glyph glyph-name="chuli" unicode="&#58887;" d="M953.696 155.008a32 32 0 0 1-45.184 2.496l-44-39.392V608c0 105.888-86.112 192-192 192s-192-86.112-192-192v-448c0-70.592-57.408-128-128-128s-128 57.408-128 128V658.432l42.752-39.072A32 32 0 1 1 310.4 666.624l-96.32 88a31.936 31.936 0 0 1-42.912 0.224l-98.336-88a32 32 0 1 1 42.72-47.68l44.992 40.256V160c0-105.888 86.112-192 192-192s192 86.112 192 192V608c0 70.592 57.408 128 128 128s128-57.408 128-128v-490.688l-43.744 39.968a32 32 0 0 1-43.2-47.232l96.352-88a31.872 31.872 0 0 1 42.944-0.224l98.336 88c13.12 11.776 14.24 32 2.464 45.184z"  horiz-adv-x="1024" />

    
    <glyph glyph-name="xuanzelie" unicode="&#58951;" d="M884-6h-720c-48 0-90 42-90 90V684c0 48 42 90 90 90h720c48 0 90-42 90-90v-600c0-48-42-90-90-90z m-720 720c-18 0-30-12-30-30v-600c0-18 12-30 30-30h720c18 0 30 12 30 30V684c0 18-12 30-30 30h-720zM434 684h60v-600h-60zM398 312L182 528v-306l66 90 60-144 42 18-60 144 108-18z"  horiz-adv-x="1024" />

    
    <glyph glyph-name="xuanze1" unicode="&#58954;" d="M310.74986667 132.50559999999996H109.568A75.5712 75.5712 0 0 0 34.13333333 208.00853332999998V811.55413333C34.13333333 853.12853333 67.9936 886.9888 109.568 886.9888H813.73866667c41.5744 0 75.43466667-33.86026667 75.43466666-75.43466667v-352.11946666a25.12213333 25.12213333 0 1 0-50.24426666 0V811.55413333a25.25866667 25.25866667 0 0 1-25.1904 25.12213334H109.568a25.12213333 25.12213333 0 0 1-25.12213333-25.12213334v-603.5456a25.25866667 25.25866667 0 0 1 25.12213333-25.1904h201.18186667a25.12213333 25.12213333 0 1 0 0-50.31253333z m377.2416-251.42613333a25.25866667 25.25866667 0 0 0-23.3472 15.70133333l-85.33333334 213.33333333-149.02613333-170.25706666a25.25866667 25.25866667 0 0 0-44.032 16.52053333V710.92906667a25.1904 25.1904 0 0 0 42.05226667 18.56853333l553.23306666-502.9888a25.12213333 25.12213333 0 0 0-16.93013333-43.69066667h-214.28906667l86.76693334-217.088a25.1904 25.1904 0 0 0-13.99466667-32.69973333l-125.7472-50.24426667a25.53173333 25.53173333 0 0 0-9.48906667-1.8432v0.13653334h0.13653334z m-100.5568 301.73866666a25.12213333 25.12213333 0 0 0 23.3472-15.7696l91.20426666-228.28373333 79.0528 31.744-91.20426666 228.1472a25.25866667 25.25866667 0 0 0 23.3472 34.54293333h186.368L436.56533333 654.19946667v-630.71573334l131.95946667 150.80106667a25.32693333 25.32693333 0 0 0 18.97813333 8.66986667v-0.13653334h-0.06826666z"  horiz-adv-x="1024" />

    
    <glyph glyph-name="chuligongdan" unicode="&#58950;" d="M907.093333-65.706667H116.906667a74.24 74.24 0 0 0 0 148.48h790.186666a74.24 74.24 0 0 0 0-148.48zM212.224 179.797333l-56.661333-18.005333 18.090666 56.661333 38.570667-38.656z m6.826667 200.192l-30.890667-135.594666 50.005333-50.090667 135.68 30.890667-154.794666 154.794666z m364.373333 343.893334l119.893333-119.893334 65.536-65.450666-255.317333-255.402667c-60.501333-13.141333-73.386667 16.725333-65.536 65.536-61.696 8.533333-107.52 36.096-118.186667 105.728L501.930667 621.226667l-15.445334 15.872-176.810666-171.434667c-44.629333-3.413333-54.101333 25.002667-47.018667 68.266667L517.973333 789.504l65.536-65.536z m213.162667-157.610667l51.626666 51.626667a73.216 73.216 0 0 1 0 103.253333L700.586667 868.693333a73.216 73.216 0 0 1-103.253334 0l-51.626666-51.626666 250.88-250.88z"  horiz-adv-x="1024" />

    
    <glyph glyph-name="resetpassword" unicode="&#58899;" d="M759.15844297-65.00515810000002H261.73766182a132.645542 132.645542 0 0 0-132.645542 130.6558582v325.97641846a132.645542 132.645542 0 0 0 132.645542 130.6558582h8.95357354v79.58732519a232.12969805 232.12969805 0 0 0 464.25939609 0h-66.322771a165.80692705 165.80692705 0 0 1-331.6138541 0v-79.58732519H759.15844297a132.645542 132.645542 0 0 0 132.64554111-130.6558582v-326.63964639A132.645542 132.645542 0 0 0 759.15844297-65.00515810000002z m66.32277011 457.62711855a66.32277099 66.32277099 0 0 1-66.32277011 66.32277099H261.73766182a66.32277099 66.32277099 0 0 1-66.322771-66.32277099v-326.63964639a66.32277099 66.32277099 0 0 1 66.322771-66.32277099h497.42078115a66.32277099 66.32277099 0 0 1 66.32277011 66.32277099z m-219.19675693-316.35961699a165.80692705 165.80692705 0 0 0-88.54089961-25.53426651 170.11790684 170.11790684 0 0 0-36.47752383 3.97936582 165.80692705 165.80692705 0 0 0-103.79513584 71.96020664 160.16949141 160.16949141 0 0 0-21.88651464 123.36035362A162.15917432 162.15917432 0 0 0 427.54458887 351.17022803a167.79660997 167.79660997 0 0 0 173.10243163 2.65291084v3.64775274a27.52395029 27.52395029 0 0 0 55.04789971 0v-79.25571124a27.19233633 27.19233633 0 0 0-27.52395029-27.19233545h-79.25571035a27.19233633 27.19233633 0 1 0 0 54.05305781c-2.98452481 0-5.63743565 2.65291084-8.95357441 3.31613878a99.48415606 99.48415606 0 0 1-74.94473145-12.93294024A97.49447315 97.49447315 0 0 1 420.58069737 233.44731005999995a96.16801729 96.16801729 0 0 1 12.93294023-73.94988955 99.48415606 99.48415606 0 0 1 62.34340517-43.10980049 99.48415606 99.48415606 0 0 1 74.94473057 12.93294024 97.49447315 97.49447315 0 0 1 43.77302929 61.3485624 33.16138506 33.16138506 0 0 0 39.46204864 24.87103945 33.16138506 33.16138506 0 0 0 25.20265254-39.13043467 162.15917432 162.15917432 0 0 0-72.95504766-101.14222588z"  horiz-adv-x="1024" />

    
    <glyph glyph-name="building" unicode="&#58964;" d="M934.4 673.792H640V815.616a38.4 38.4 0 0 1-38.4 38.4h-512a38.4 38.4 0 0 1-38.4-38.4v-863.232a38.4 38.4 0 0 1 38.4-38.4h844.8a38.4 38.4 0 0 1 38.4 38.4V635.392a38.4 38.4 0 0 1-38.4 38.4zM128 777.216H563.2v-786.432H463.872v165.888a38.4 38.4 0 0 1-38.4 38.4H265.728a38.4 38.4 0 0 1-38.4-38.4v-165.376H128V777.216z m176.128-786.432v127.488h82.944v-126.976H304.128z m591.872 0h-256V596.992h256v-606.208zM247.296 444.928h37.888a25.6 25.6 0 1 1 0 51.2h-37.888a25.6 25.6 0 0 1 0-51.2zM247.296 609.7919999999999h37.888a25.6 25.6 0 1 1 0 51.2h-37.888a25.6 25.6 0 0 1 0-51.2zM406.016 609.7919999999999h37.888a25.6 25.6 0 0 1 0 51.2h-37.888a25.6 25.6 0 0 1 0-51.2zM406.016 444.928h37.888a25.6 25.6 0 1 1 0 51.2h-37.888a25.6 25.6 0 0 1 0-51.2zM247.296 268.288h37.888a25.6 25.6 0 0 1 0 51.2h-37.888a25.6 25.6 0 0 1 0-51.2zM406.016 268.288h37.888a25.6 25.6 0 0 1 0 51.2h-37.888a25.6 25.6 0 0 1 0-51.2zM749.056 438.784h37.888a25.6 25.6 0 0 1 0 51.2h-37.888a25.6 25.6 0 0 1 0-51.2zM749.056 273.91999999999996h37.888a25.6 25.6 0 0 1 0 51.2h-37.888a25.6 25.6 0 0 1 0-51.2zM749.056 97.79200000000003h37.888a25.6 25.6 0 0 1 0 51.2h-37.888a25.6 25.6 0 0 1 0-51.2z"  horiz-adv-x="1024" />

    
    <glyph glyph-name="jiaoseguanli3" unicode="&#58893;" d="M989.65333333 221.49333333000004c-0.64 20.90666667-13.54666667 31.46666667-36.05333333 33.28-33.28 2.77333333-52.05333333 27.73333333-45.86666667 56.96 8.32 40 6.50666667 43.73333333-29.86666666 64.42666667l-23.14666667 12.90666666c-29.86666667 16.64-42.24 15.36-69.65333333-6.18666666-26.24-20.69333333-38.18666667-20.69333333-64.10666667 0.32-27.09333333 22.18666667-39.78666667 23.36-69.65333333 6.82666666-12.90666667-7.04-25.92-13.86666667-38.50666667-21.54666666-17.6-10.45333333-25.28-24.64-18.77333333-46.18666667 11.73333333-38.82666667-5.54666667-63.46666667-47.46666667-67.73333333-17.6-1.81333333-29.01333333-11.09333333-30.18666667-26.77333334-2.45333333-30.50666667-2.77333333-61.33333333-1.28-91.84 0.96-20.05333333 13.22666667-30.18666667 34.77333334-32 32.64-2.45333333 53.33333333-28.37333333 47.14666666-56.10666666-8.96-41.28-7.04-45.33333333 30.18666667-66.24 8.32-4.90666667 16.64-9.6 24.96-14.18666666 25.92-13.86666667 41.28-12.37333333 63.78666667 7.03999999 29.86666667 25.6 40.10666667 24.96 70.50666666 0 10.13333333-8.32 22.82666667-13.54666667 38.50666667-22.82666667 28.69333333 17.81333333 56.42666667 33.6 81.6 52.37333334 5.86666667 4.58666667 7.36 21.86666667 3.73333333 30.50666667-14.82666667 35.41333333 8.32 65.92 48.96 69.65333333 16.32 1.49333333 27.41333333 10.45333333 28.69333334 25.28 2.24 30.72 2.88 61.54666667 1.70666666 92.05333333z m-65.06666666-78.61333333c-46.82666667-11.09333333-71.78666667-59.41333333-60.37333334-116.16-9.81333333-5.22666667-20.37333333-12.05333333-31.46666666-16.96-4.05333333-1.81333333-10.77333333-0.32-15.14666667 1.81333334-15.68 7.68-30.18666667 18.45333333-46.50666667 24.31999999-27.41333333 9.81333333-53.01333333-1.28-74.24-17.28-17.28-12.90666667-29.86666667-10.13333333-44.37333333 0.96-3.41333333 2.77333333-7.36 4.58666667-12.05333333 7.36000001 7.68 33.6 4.26666667 65.6-20.37333334 90.55999999-11.09333333 11.41333333-26.45333333 21.86666667-41.92 25.60000001-21.86666667 5.22666667-23.14666667 18.45333333-23.14666666 35.41333333 0.32 16.32 0 30.18666667 22.18666666 35.73333333 50.24 12.37333333 72.10666667 54.18666667 63.78666667 116.8 5.22666667 3.09333333 11.73333333 5.86666667 16.32 9.6 14.82666667 12.37333333 29.01333333 10.45333333 43.09333333 0 34.24-25.92 69.65333333-28.05333333 103.57333334-1.49333334 24.64 19.41333333 40.64 3.09333333 59.73333333-8.95999999-9.6-41.92 0.32-77.33333333 35.09333333-103.78666667 7.36-5.54666667 16.64-10.45333333 25.6-11.73333334 22.18666667-3.09333333 24.96-16.96 24.96-35.73333333s-2.88-30.82666667-24.74666666-36.05333333zM752.10666667 266.08000001000005c-48.32 1.28-92.16-32.32-92.16-85.97333335 0-54.18666667 38.82666667-86.61333333 90.24-87.78666665 48.64-1.28 92.16 32 92.48 85.97333332s-39.14666667 86.61333333-90.56 87.78666668z m0.32-127.78666667c-23.68-0.64-42.56 17.6-42.56 40.95999999 0 22.50666667 17.6 40.32 40.32 40.64000001 24.32 0.32 42.77333333-17.28 42.56-40.64000001 0-22.50666667-17.92-40.32-40.32-40.95999999zM556.58666667 35.039999999999964c0.64 3.41333333 0.53333333 14.72 0.53333333 17.70666667H331.73333333c-25.38666667 0-60.05333333 34.77333333-60.05333333 75.09333334V503.52c0 1.49333333 0.32-1.49333333 0 0 0 30.08-29.01333333 30.08-45.12 30.08-12.58666667 0 1.49333333 1.49333333 0 0L181.44 518.5600000100001c-2.77333333 0-14.72-0.32-15.04 0l-75.09333333 60.05333332 60.05333333 105.17333333c30.82666667 43.73333333 74.02666667 75.09333333 165.22666667 75.09333334h60.05333333l13.33333333-14.4c0.96-2.77333333 2.45333333-5.22666667 4.58666667-7.36l73.06666667-83.84c15.14666667-17.28 44.37333333-17.28 59.41333333 0l73.28 83.52c1.28 1.49333333 2.45333333 3.09333333 3.41333333 5.22666667l13.22666667 16.85333333H677.33333333c98.56 0 122.77333333-6.29333333 150.29333334-45.12l75.09333333-120.21333334-90.13333333-75.09333332c-3.41333333 9.70666667 5.54666667-0.32 0 0l-26.77333334-1.06666667c-1.49333333 0.64-16.42666667 15.46666667-18.34666666 16.10666666-4.58666667 1.49333333-8.53333333 0-15.04 0-16.96 0-30.08-27.52-30.08-45.12v-75.09333333c14.82666667-4.26666667 35.94666667 2.45333333 55.68 18.13333333 1.28 0.96 2.13333333 1.49333333 3.09333333 2.45333334v28.90666667l5.54666667-2.77333334c1.49333333-0.64 3.09333333-1.28 4.90666666-1.81333334 5.54666667-1.49333333 10.77333333-2.13333333 16.64-2.13333332 13.86666667 0 26.77333333 4.26666667 38.82666667 12.90666666l95.78666667 75.52c20.90666667 15.14666667 27.09333333 44.37333333 13.54666666 66.56l-77.65333333 127.57333333c-41.6 60.05333333-91.52 80.10666667-197.54666667 80.10666667h-79.78666666c-9.6 0-18.13333333-5.22666667-22.50666667-13.86666667l-21.97333333-30.93333332-59.94666667-60.05333335-60.05333333 60.05333335-14.72 28.8c-4.05333333 9.81333333-13.22666667 16.32-23.68 16.31999999h-84.69333334c-95.46666667 0-156.16-28.37333333-203.30666666-95.46666667l-71.25333334-111.89333333c-14.18666667-22.18666667-8.64-51.73333333 11.09333334-65.92l93.97333333-81.6c15.36-11.41333333 35.73333333-15.14666667 54.50666667-10.13333333 2.13333333 0.64 4.26666667 1.49333333 6.18666666 2.45333333l8.64 4.90666666v-343.46666666c0-68.37333333 55.46666667-124.16 124.16-124.16h214.4c-2.13333333 9.81333333 0.32 22.18666667 4.37333334 41.28z"  horiz-adv-x="1024" />

    
    <glyph glyph-name="resetPWD" unicode="&#58921;" d="M876.05333333 221.01333333000002c-15.57333333 9.28-35.73333333 4.16-44.90666666-11.41333333C764.48 97.70666667 642.13333333 28.159999999999968 512 28.159999999999968c-173.65333333 0-319.78666667 119.78666667-360.21333333 281.06666667l47.57333333-47.57333334c12.8-12.8 33.49333333-12.8 46.29333333 0 12.69333333 12.8 12.69333333 33.49333333-0.10666666 46.29333334L131.09333333 422.61333333c-9.28 9.38666667-23.36 12.16-35.62666666 7.04-12.26666667-5.12-20.16-16.96-20.16-30.29333333C75.2 158.61333333000005 271.14666667-37.33333332999996 512-37.33333332999996c153.17333333 0 296.96 81.81333333 375.46666667 213.44 9.17333333 15.57333333 4.16 35.62666667-11.41333334 44.90666666zM512 836.16c-168.32 0-318.82666667-94.08-392.74666667-245.44-7.89333333-16.21333333-1.17333333-35.84 15.04-43.84 16.10666667-7.89333333 35.84-1.28 43.73333334 15.04 62.82666667 128.74666667 190.72 208.64 333.86666666 208.64 173.65333333 0 319.78666667-119.78666667 360.21333334-281.06666667l-58.13333334 58.13333334c-12.8 12.8-33.49333333 12.8-46.29333333 0s-12.8-33.49333333 0-46.29333334L892.8 376.21333332999995c6.29333333-6.29333333 14.61333333-9.6 23.14666667-9.6 4.16 0 8.53333333 0.85333333 12.48 2.56 12.26666667 5.12 20.16 16.96 20.16 30.29333334 0.21333333 240.74666667-195.73333333 436.69333333-436.58666667 436.69333333z m-0.10666667-197.01333333c-79.78666667 0-144.74666667-63.46666667-144.74666666-141.54666667v-37.44c-24.53333333-3.84-43.62666667-23.89333333-43.62666667-49.17333333v-178.66666667c0-27.94666667 23.04-50.77333333 51.41333333-50.77333333h273.92c28.26666667 0 51.30666667 22.72 51.30666667 50.77333333V410.98666667c0 25.28-19.09333333 45.33333333-43.62666667 49.17333333v37.44c0.10666667 78.08-64.85333333 141.54666667-144.64 141.54666667z m-90.13333333-141.44c0 47.89333333 40.42666667 86.93333333 90.13333333 86.93333333s90.13333333-39.04 90.13333334-86.93333333v-35.94666667h-180.26666667v35.94666667z m223.89333333-261.54666667l-267.52-3.84-0.32 177.81333333 267.73333334 0.85333334v-174.82666667z m0 0"  horiz-adv-x="1024" />

    
    <glyph glyph-name="rm-black" unicode="&#58947;" d="M951.898721-72.81307300000003c0 131.127424-56.680281 252.589878-156.278657 336.55874h0.92162l-17.916451 13.654432c-5.333228 4.060454-11.676815 6.20414-18.347469 6.20414-9.507775 0-18.257463-4.33301-24.002694-11.874577-10.121343-13.239893-7.580866-32.247836 5.665366-42.37425 95.018164-72.608973 149.514192-182.740695 149.514192-302.167217v-0.006339H131.452568c0 209.542478 170.470595 380.019412 380.004199 380.019412 162.087273 0 293.948698 131.861424 293.948698 293.944894C805.405465 763.2283649999999 673.53897 895.089789 511.456767 895.089789 349.378368 895.089789 217.516944 763.2283649999999 217.516944 601.146162c0-56.705635 16.297593-111.770863 47.128137-159.236209a295.856591 295.856591 0 0 1 105.204159-97.935149c-82.310706-28.121462-156.016242-81.143151-209.041735-150.742596C102.062135 116.11908500000004 71.008476 24.121857999999975 71.008476-72.81814399999996v-53.91035h880.890245v53.915421zM277.961036 601.144895c0 128.75048 104.743983 233.499535 233.495731 233.499534 128.755551 0 233.509676-104.749054 233.509677-233.499534 0-128.751748-104.754125-233.495731-233.509677-233.495732-128.751748 0-233.495731 104.743983-233.495731 233.495732z m0 0"  horiz-adv-x="1024" />

    
    <glyph glyph-name="xuanzehang" unicode="&#58886;" d="M370.5 716.9l-32.7 32.7-166.7-167.9-75.6 75.6-31-36.6L170 515.2zM370.5 427.3L337.8 460 171.1 292.1l-75.6 75.6-31-36.7L170 225.60000000000002zM478.4 667.6H960v-70.4H478.4zM478.4 378H960v-70.4H478.4zM64 88.79999999999995h896v-70.4H64z"  horiz-adv-x="1024" />

    
    <glyph glyph-name="search1" unicode="&#58884;" d="M240.776 655.1279999999999A302.952 302.952 0 0 1 157.328 384c18.048 81.912 60.48 161.952 126.576 228.096C350.048 678.264 430.088 720.672 512 738.72c-95.28 17.952-197.52-9.864-271.224-83.592zM959.6 93.26400000000001l-114.096 114.096a110.64 110.64 0 0 1-87 31.992c107.304 155.208 91.8 369.744-46.392 507.96-155.568 155.616-407.856 155.616-563.472 0-155.568-155.616-155.568-407.928 0-563.544 138.192-138.216 352.56-153.6 507.864-46.296-2.4-31.2 8.304-63.312 31.992-87l114.096-114.12c43.2-43.104 113.784-43.104 156.888 0 43.32 43.104 43.32 113.712 0.12 156.912zM665.84 230.15999999999997c-130.008-130.008-340.68-130.008-470.64 0-130.008 130.008-130.008 340.728 0 470.736 129.96 130.008 340.632 130.008 470.64 0 129.984-129.912 129.984-340.728 0-470.736z"  horiz-adv-x="1024" />

    


  </font>
</defs>
</svg>
